<svg t="1677343192869" class="icon" viewBox="0 0 1024 1024" version="1.1" xmlns="http://www.w3.org/2000/svg" p-id="7607" width="200" height="200"><path d="M853.932164 349.716959l-91.221832 0c0-146.51384-111.981287-258.495127-254.702534-258.495127-142.920858 0-254.702534 111.981287-254.702534 258.495127L161.883821 349.716959C161.883821 173.860429 316.980897 0 507.808187 0 698.635478 0 853.932164 173.860429 853.932164 349.716959L853.932164 349.716959zM969.706043 499.624172c0-50.301754-40.920078-91.221832-91.221832-91.221832L147.511891 408.402339c-50.301754 0-91.221832 40.920078-91.221832 91.221832l0 433.153996c0 50.301754 40.920078 91.221832 91.221832 91.221832l730.77271 0c50.301754 0 91.221832-40.920078 91.221832-91.221832L969.506433 499.624172 969.706043 499.624172zM585.25692 838.362573c0 37.726316-30.540351 68.466277-68.466277 68.466277l-9.780897 0c-37.726316 0-68.466277-30.540351-68.466277-68.466277l0-185.637427c0-37.726316 30.540351-68.466277 68.466277-68.466277l9.780897 0c37.726316 0 68.466277 30.540351 68.466277 68.466277L585.25692 838.362573 585.25692 838.362573zM585.25692 838.362573" fill="#bfbfbf" p-id="7608"></path></svg>