<svg t="1701678223349" class="icon" viewBox="0 0 1024 1024" version="1.1" xmlns="http://www.w3.org/2000/svg" p-id="4522" width="200" height="200"><path d="M109.226667 534.186667c0 233.813333 182.613333 421.546667 407.893333 421.546666s407.893333-189.44 407.893333-421.546666-182.613333-421.546667-407.893333-421.546667-407.893333 189.44-407.893333 421.546667z" fill="#FFFFFF" p-id="4523"></path><path d="M334.506667 341.333333c-17.066667 0-35.84 11.946667-35.84 29.013334s17.066667 29.013333 35.84 29.013333c17.066667 0 29.013333-11.946667 29.013333-29.013333 1.706667-17.066667-10.24-29.013333-29.013333-29.013334z m245.76 170.666667c-11.946667 0-23.893333 11.946667-23.893334 23.893333s11.946667 23.893333 23.893334 23.893334c17.066667 0 29.013333-11.946667 29.013333-23.893334 1.706667-11.946667-10.24-23.893333-29.013333-23.893333z m-76.8-112.64c17.066667 0 29.013333-11.946667 29.013333-29.013333s-11.946667-29.013333-29.013333-29.013334-35.84 11.946667-35.84 29.013334c-1.706667 17.066667 17.066667 29.013333 35.84 29.013333z m209.92 112.64c-11.946667 0-23.893333 11.946667-23.893334 23.893333s11.946667 23.893333 23.893334 23.893334c17.066667 0 29.013333-11.946667 29.013333-23.893334s-11.946667-23.893333-29.013333-23.893333z" fill="#3DB135" p-id="4524"></path><path d="M512 34.133333c-262.826667 0-477.866667 213.333333-477.866667 477.866667 0 262.826667 213.333333 477.866667 477.866667 477.866667 262.826667 0 477.866667-213.333333 477.866667-477.866667 0-262.826667-215.04-477.866667-477.866667-477.866667z m-98.986667 609.28c-30.72 0-54.613333-5.12-85.333333-11.946666l-83.626667 40.96 23.893334-71.68c-59.733333-40.96-97.28-95.573333-97.28-160.426667 0-112.64 109.226667-201.386667 242.346666-201.386667 119.466667 0 221.866667 71.68 244.053334 167.253334-6.826667-1.706667-15.36-1.706667-23.893334-1.706667-114.346667 0-204.8 83.626667-204.8 187.733333 0 17.066667 3.413333 34.133333 6.826667 49.493334-8.533333 0-15.36 1.706667-22.186667 1.706666z m354.986667 81.92l18.773333 59.733334-66.56-35.84c-23.893333 5.12-47.786667 11.946667-71.68 11.946666-114.346667 0-204.8-76.8-204.8-172.373333s90.453333-172.373333 204.8-172.373333c109.226667 0 204.8 76.8 204.8 172.373333 0 54.613333-37.546667 100.693333-85.333333 136.533333z" fill="#3DB135" p-id="4525"></path></svg>